# xmcd
#
# Track frame offsets: 
#        225
#        13946
#        29152
#        39922
#        52534
#        66155
#        79899
#        94706
#        106898
#        119173
#
# Disc length: 1780 seconds
#
# Revision: 0
# Processed by: cddbd v1.4PL0 Copyright (c) Steve Scherf et al.
# Submitted via: ExactAudioCopy v0.90b4
#
DISCID=8006f10a
DTITLE=Ronnie Milsap - Night Things
DYEAR=1900
DGENRE=Country
TTITLE0=(After Sweet Memories) Play Born To Lose Again
TTITLE1=Who'll Turn Out The Lights (In Your World Tonight)
TTITLE2=Daydreams About Night Things
TTITLE3=I'm No Good At Goodbyes
TTITLE4=Just In Case
TTITLE5=Remember To Remind Me (I'm Leaving)
TTITLE6=Borrowed Angel
TTITLE7=Love Takes A Long Time To Die
TTITLE8=(Lying Here With) Linda On My Mind
TTITLE9=I'll Be There (If You Ever Want Me)
EXTD=
EXTT0=
EXTT1=
EXTT2=
EXTT3=
EXTT4=
EXTT5=
EXTT6=
EXTT7=
EXTT8=
EXTT9=
PLAYORDER=
